G75*
%MOIN*%
%OFA0B0*%
%FSLAX25Y25*%
%IPPOS*%
%LPD*%
%AMOC8*
5,1,8,0,0,1.08239X$1,22.5*
%
%ADD10C,0.12998*%
%ADD11C,0.06000*%
%ADD12OC8,0.06502*%
%ADD13OC8,0.16148*%
%ADD14C,0.08077*%
%ADD15OC8,0.07000*%
%ADD16C,0.13061*%
%ADD17C,0.00500*%
%ADD18R,0.00600X0.07200*%
D10*
X0139500Y0107000D03*
X0344500Y0127000D03*
X0344500Y0237000D03*
X0144500Y0297000D03*
D11*
X0158500Y0298400D02*
X0158500Y0295600D01*
X0168500Y0295600D02*
X0168500Y0298400D01*
X0178500Y0298400D02*
X0178500Y0295600D01*
X0188500Y0295600D02*
X0188500Y0298400D01*
X0198500Y0298400D02*
X0198500Y0295600D01*
X0208500Y0295600D02*
X0208500Y0298400D01*
X0218500Y0298400D02*
X0218500Y0295600D01*
X0228500Y0295600D02*
X0228500Y0298400D01*
X0238500Y0298400D02*
X0238500Y0295600D01*
X0248500Y0295600D02*
X0248500Y0298400D01*
X0264500Y0298400D02*
X0264500Y0295600D01*
X0274500Y0295600D02*
X0274500Y0298400D01*
X0284500Y0298400D02*
X0284500Y0295600D01*
X0294500Y0295600D02*
X0294500Y0298400D01*
X0304500Y0298400D02*
X0304500Y0295600D01*
X0314500Y0295600D02*
X0314500Y0298400D01*
X0324500Y0298400D02*
X0324500Y0295600D01*
X0334500Y0295600D02*
X0334500Y0298400D01*
X0332000Y0177900D02*
X0332000Y0175100D01*
X0322000Y0175100D02*
X0322000Y0177900D01*
X0312000Y0177900D02*
X0312000Y0175100D01*
X0302000Y0175100D02*
X0302000Y0177900D01*
X0292000Y0177900D02*
X0292000Y0175100D01*
X0282000Y0175100D02*
X0282000Y0177900D01*
X0272000Y0177900D02*
X0272000Y0175100D01*
X0262000Y0175100D02*
X0262000Y0177900D01*
X0252000Y0177900D02*
X0252000Y0175100D01*
X0242000Y0175100D02*
X0242000Y0177900D01*
X0232000Y0177900D02*
X0232000Y0175100D01*
X0222000Y0175100D02*
X0222000Y0177900D01*
X0212000Y0177900D02*
X0212000Y0175100D01*
X0202000Y0175100D02*
X0202000Y0177900D01*
X0202000Y0147900D02*
X0202000Y0145100D01*
X0212000Y0145100D02*
X0212000Y0147900D01*
X0222000Y0147900D02*
X0222000Y0145100D01*
X0232000Y0145100D02*
X0232000Y0147900D01*
X0242000Y0147900D02*
X0242000Y0145100D01*
X0252000Y0145100D02*
X0252000Y0147900D01*
X0262000Y0147900D02*
X0262000Y0145100D01*
X0272000Y0145100D02*
X0272000Y0147900D01*
X0282000Y0147900D02*
X0282000Y0145100D01*
X0292000Y0145100D02*
X0292000Y0147900D01*
X0302000Y0147900D02*
X0302000Y0145100D01*
X0312000Y0145100D02*
X0312000Y0147900D01*
X0322000Y0147900D02*
X0322000Y0145100D01*
X0332000Y0145100D02*
X0332000Y0147900D01*
X0334500Y0108400D02*
X0334500Y0105600D01*
X0324500Y0105600D02*
X0324500Y0108400D01*
X0314500Y0108400D02*
X0314500Y0105600D01*
X0304500Y0105600D02*
X0304500Y0108400D01*
X0294500Y0108400D02*
X0294500Y0105600D01*
X0284500Y0105600D02*
X0284500Y0108400D01*
X0264500Y0108400D02*
X0264500Y0105600D01*
X0254500Y0105600D02*
X0254500Y0108400D01*
X0244500Y0108400D02*
X0244500Y0105600D01*
X0234500Y0105600D02*
X0234500Y0108400D01*
X0224500Y0108400D02*
X0224500Y0105600D01*
X0214500Y0105600D02*
X0214500Y0108400D01*
X0204500Y0108400D02*
X0204500Y0105600D01*
X0194500Y0105600D02*
X0194500Y0108400D01*
D12*
X0335000Y0197000D03*
X0345000Y0197000D03*
X0345000Y0207000D03*
X0335000Y0207000D03*
X0335000Y0217000D03*
X0345000Y0217000D03*
X0166500Y0274000D03*
X0156500Y0274000D03*
X0146500Y0274000D03*
X0146500Y0284000D03*
X0156500Y0284000D03*
X0166500Y0284000D03*
D13*
X0130500Y0129700D03*
X0106900Y0129700D03*
X0118700Y0110000D03*
D14*
X0115700Y0110000D03*
X0121700Y0110000D03*
X0130500Y0126700D03*
X0130500Y0132700D03*
X0106900Y0132700D03*
X0106900Y0126700D03*
D15*
X0149000Y0200000D03*
X0169000Y0200000D03*
X0118043Y0242079D03*
X0110169Y0242079D03*
X0110169Y0251921D03*
X0118043Y0251921D03*
X0156500Y0254000D03*
X0166500Y0254000D03*
X0166500Y0264000D03*
X0156500Y0264000D03*
D16*
X0099500Y0270622D03*
X0099500Y0223378D03*
D17*
X0124250Y0260100D02*
X0128750Y0260100D01*
X0128750Y0253900D01*
X0124250Y0253900D01*
X0124250Y0260100D01*
X0124250Y0254399D02*
X0128750Y0254399D01*
X0128750Y0254898D02*
X0124250Y0254898D01*
X0124250Y0255397D02*
X0128750Y0255397D01*
X0128750Y0255896D02*
X0124250Y0255896D01*
X0124250Y0256395D02*
X0128750Y0256395D01*
X0128750Y0256894D02*
X0124250Y0256894D01*
X0124250Y0257393D02*
X0128750Y0257393D01*
X0128750Y0257892D02*
X0124250Y0257892D01*
X0124250Y0258391D02*
X0128750Y0258391D01*
X0128750Y0258890D02*
X0124250Y0258890D01*
X0124250Y0259389D02*
X0128750Y0259389D01*
X0128750Y0259888D02*
X0124250Y0259888D01*
X0130250Y0260100D02*
X0134750Y0260100D01*
X0134750Y0253900D01*
X0130250Y0253900D01*
X0130250Y0260100D01*
X0130250Y0254399D02*
X0134750Y0254399D01*
X0134750Y0254898D02*
X0130250Y0254898D01*
X0130250Y0255397D02*
X0134750Y0255397D01*
X0134750Y0255896D02*
X0130250Y0255896D01*
X0130250Y0256395D02*
X0134750Y0256395D01*
X0134750Y0256894D02*
X0130250Y0256894D01*
X0130250Y0257393D02*
X0134750Y0257393D01*
X0134750Y0257892D02*
X0130250Y0257892D01*
X0130250Y0258391D02*
X0134750Y0258391D01*
X0134750Y0258890D02*
X0130250Y0258890D01*
X0130250Y0259389D02*
X0134750Y0259389D01*
X0134750Y0259888D02*
X0130250Y0259888D01*
D18*
X0129500Y0257000D03*
M02*
