%
M48
M72
;FILE_FORMAT=2:4
INCH,TZ
T01C0.02400
T02C0.03346
T03C0.03740
T04C0.05118
T05C0.08661
T06C0.12598
%
T01
X169100Y108100
X150100Y124100
X151000Y143000
X171000Y142500
X191500Y153000
X207000Y138500
X194000Y128500
X199500Y121500
X233000Y161500
X246600Y167600
X287000Y182000
X276750Y198250
X269750Y197750
X270100Y212100
X255100Y221100
X227500Y208500
X216500Y199500
X212000Y195000
X190500Y181500
X175500Y182500
X185000Y173000
X172500Y169500
X159000Y180000
X140000Y164500
X114500Y157000
X119500Y149500
X129500Y147000
X104500Y154500
X94500Y149500
X94500Y165500
X104500Y177000
X114500Y174500
X119500Y182000
X131250Y182250
X112000Y192000
X94500Y182000
X132000Y194500
X112000Y210500
X132000Y220500
X158300Y229300
X183500Y245000
X183000Y257000
X172000Y258500
X204000Y245100
X205100Y232100
X202500Y221000
X210000Y215500
X214000Y220000
X203500Y212500
X186500Y214500
X182500Y206000
X186200Y193600
X159000Y200000
X206000Y259000
X173500Y280500
X184000Y290500
X125500Y293500
X119500Y284642
X256500Y297000
X299500Y290500
X339100Y283600
X339100Y256600
X325500Y226500
X306300Y220300
X318500Y207000
X318500Y194500
X318000Y169000
X328000Y165000
X349200Y166700
X349100Y139100
X274500Y129500
X274500Y107000
T02
X264500Y107000
X254500Y107000
X244500Y107000
X234500Y107000
X224500Y107000
X214500Y107000
X204500Y107000
X194500Y107000
X202000Y146500
X212000Y146500
X222000Y146500
X232000Y146500
X242000Y146500
X252000Y146500
X262000Y146500
X272000Y146500
X282000Y146500
X292000Y146500
X302000Y146500
X312000Y146500
X322000Y146500
X332000Y146500
X332000Y176500
X322000Y176500
X312000Y176500
X302000Y176500
X292000Y176500
X282000Y176500
X272000Y176500
X262000Y176500
X252000Y176500
X242000Y176500
X232000Y176500
X222000Y176500
X212000Y176500
X202000Y176500
X169000Y200000
X149000Y200000
X284500Y107000
X294500Y107000
X304500Y107000
X314500Y107000
X324500Y107000
X334500Y107000
X334500Y297000
X324500Y297000
X314500Y297000
X304500Y297000
X294500Y297000
X284500Y297000
X274500Y297000
X264500Y297000
X248500Y297000
X238500Y297000
X228500Y297000
X218500Y297000
X208500Y297000
X198500Y297000
X188500Y297000
X178500Y297000
X168500Y297000
X158500Y297000
T03
X156500Y284000
X166500Y284000
X166500Y274000
X156500Y274000
X146500Y274000
X146500Y284000
X156500Y264000
X166500Y264000
X166500Y254000
X156500Y254000
X118043Y251921
X110169Y251921
X110169Y242079
X118043Y242079
X335000Y217000
X345000Y217000
X345000Y207000
X335000Y207000
X335000Y197000
X345000Y197000
T04
X130500Y132700
X130500Y129700
X130500Y126700
X106900Y126700
X106900Y129700
X106900Y132700
X115700Y110000
X118700Y110000
X121700Y110000
T05
X99500Y223378
X99500Y270622
T06
X139500Y107000
X344500Y127000
X344500Y237000
X144500Y297000
M30
